<?xml version="1.0" ?><svg viewBox="0 0 48 48" xmlns="http://www.w3.org/2000/svg"><title/><g id="Virus_Corona"><circle fill="#029faa" cx="30" cy="30" r="2"/><circle fill="#029faa" cx="19" cy="21" r="5"/><path fill="#029faa"  d="M46.79,20.87a1,1,0,0,0-2,.26c.08.62.13,1.25.16,1.87H42c-.26-4.71-2-6.68-1.69-6.83l2.25-1.31c.29.55.56,1.12.8,1.7a1,1,0,0,0,1.85-.77A23.88,23.88,0,0,0,42,10.37a1,1,0,0,0-1.58,1.22c.38.5.73,1,1.07,1.54l-2.27,1.32A18.14,18.14,0,0,0,33.87,9l1.35-2.24C36.85,7.81,36.83,8,37.37,8A1,1,0,0,0,38,6.26,23.82,23.82,0,0,0,32.63,3a1,1,0,0,0-.8,1.83q.87.39,1.68.84L32.14,8C28,5.87,25,6.21,25,6V3c.62,0,1.25.08,1.87.16a1,1,0,0,0,.26-2,23.43,23.43,0,0,0-6.26,0,1,1,0,0,0,.26,2c.62-.08,1.25-.13,1.87-.16,0,3.64,0,2.88,0,3A18,18,0,0,0,15.86,8L14.49,5.69q.81-.45,1.68-.84A1,1,0,0,0,15.37,3,23.78,23.78,0,0,0,10,6.26a1,1,0,0,0,1.25,1.56c.49-.39,1-.75,1.52-1.1L14.13,9a18.9,18.9,0,0,0-5.39,5.47l-2.25-1.3c.34-.52.69-1,1.07-1.54A1,1,0,0,0,6,10.37a23.88,23.88,0,0,0-3.14,5.42,1,1,0,0,0,.92,1.38c.89,0,.89-.68,1.73-2.31A20.14,20.14,0,0,0,7.8,16.19,17.9,17.9,0,0,0,6.05,23H3c0-.62.08-1.25.16-1.87a1,1,0,0,0-2-.26,23.43,23.43,0,0,0,0,6.26,1,1,0,0,0,2-.26C3.11,26.25,3.06,25.62,3,25h3c.26,4.71,2,6.68,1.69,6.83L5.49,33.14c-.29-.55-.56-1.12-.8-1.7a1,1,0,0,0-1.85.77A23.88,23.88,0,0,0,6,37.63a1,1,0,0,0,1.58-1.22c-.38-.5-.73-1-1.07-1.54l2.27-1.32A18.14,18.14,0,0,0,14.13,39l-1.35,2.24c-.52-.35-1-.71-1.52-1.1A1,1,0,0,0,10,41.74c1.43,1.14,4.88,3.32,5.76,3.32a1,1,0,0,0,.4-1.91q-.87-.39-1.68-.84L15.86,40C20,42.13,23,41.79,23,42v3c-.62,0-1.25-.08-1.87-.16a1,1,0,0,0-.26,2,23.43,23.43,0,0,0,6.26,0,1,1,0,0,0-.26-2c-.62.08-1.25.13-1.87.16V42c0-.25,3,.15,7.14-2l1.37,2.27q-.81.45-1.68.84a1,1,0,0,0,.4,1.91c1,0,4.33-2.17,5.76-3.32a1,1,0,0,0-1.25-1.56c-.49.39-1,.75-1.52,1.1L33.87,39a18.14,18.14,0,0,0,5.37-5.49,25.83,25.83,0,0,0,2.27,1.32c-.34.52-.69,1-1.07,1.54A1,1,0,0,0,42,37.63a23.88,23.88,0,0,0,3.14-5.42,1,1,0,0,0-1.85-.77c-.24.58-.51,1.15-.8,1.7l-2.25-1.31C40,31.69,41.7,29.55,42,25h3c0,.62-.08,1.25-.16,1.87a1,1,0,0,0,2,.26A23.43,23.43,0,0,0,46.79,20.87ZM12,21a7,7,0,1,1,7,7A7,7,0,0,1,12,21ZM30,34a4,4,0,1,1,4-4A4,4,0,0,1,30,34Z"/></g></svg>
