<svg height="512" viewBox="0 0 60 60" width="512" xmlns="http://www.w3.org/2000/svg"><g id="Page-1" fill="none" fill-rule="evenodd"><g id="031---No-Virus" fill-rule="nonzero"><g id="Icons" transform="translate(1 1)"><circle id="Oval" cx="29" cy="29" fill="#f34335" r="29"/><path id="Shape" d="m29 0c-.5033333 0-1.0033333.01266667-1.5.038 15.4192225.79012792 27.5158989 13.5225465 27.5158989 28.962s-12.0966764 28.1718721-27.5158989 28.962c.4973333.0253333.9973333.038 1.5.038 16.0162576-.0000002 28.9999996-12.9837424 28.9999996-29s-12.983742-28.99999976-28.9999996-29z" fill="#c71e1e"/><path id="Shape" d="m53.915 31.089c-.7606002 9.1423698-6.470712 17.1324456-14.8739974 20.8129664-8.4032853 3.6805209-18.1477932 2.4593512-25.3830026-3.1809664-.2199766-.1789202-.3536538-.442816-.3677662-.7260174-.0141124-.2832013.092667-.5590795.2937662-.7589826l33.652-33.652c.1999031-.2010992.4757813-.3078786.7589826-.2937662.2832014.0141124.5470972.1477896.7260174.3677662 3.8692947 4.9465314 5.7247361 11.1733699 5.194 17.431z" fill="#607d8a"/><path id="Shape" d="m48.721 13.658c-.1789202-.2199766-.442816-.3536538-.7260174-.3677662-.2832013-.0141124-.5590795.092667-.7589826.2937662l-.9.9c5.2308313 7.3110209 6.1300921 16.8687535 2.3547348 25.0271419-3.7753573 8.1583883-11.6430504 13.6591453-20.6017348 14.4038581-.217.017-.432.025-.648.037 1.2153315.0744779 2.4344291.0621131 3.648-.037 9.1423698-.7606002 17.1324456-6.470712 20.8129664-14.8739974 3.6805209-8.4032853 2.4593512-18.1477932-3.1809664-25.3830026z" fill="#37474f"/><path id="Shape" d="m10.764 44.416c-.1999031.2010992-.4757813.3078786-.7589826.2937662-.28320136-.0141124-.54709717-.1477896-.7260174-.3677662-7.75176305-9.9452087-6.87740572-24.1080191 2.0387876-33.0242124 8.9161933-8.91619332 23.0790037-9.79055065 33.0242124-2.0387876.2199766.17892023.3536538.44281604.3677662.7260174.0141124.2832013-.092667.5590795-.2937662.7589826z" fill="#607d8a"/><path id="Shape" d="m39.49 21.33c3.785174 5.1716777 3.234344 12.3308135-1.2974213 16.8625787-4.5317652 4.5317653-11.690901 5.0825953-16.8625787 1.2974213z" fill="#ffdb00"/><path id="Shape" d="m39.49 21.33-1.865 1.87c1.8953648 3.786751 1.8245543 8.2599616-.1897187 11.9848233-2.014273 3.7248618-5.718781 6.2330978-9.9252813 6.7201767 3.6864627.4500697 7.3883836-.707491 10.1617611-3.1775005 2.7733776-2.4700094 4.3501513-6.0137292 4.3282389-9.7274995.0051748-2.7593127-.8745573-5.4475778-2.51-7.67z" fill="#fdc008"/><path id="Shape" d="m18.51 36.67c-3.785174-5.1716777-3.234344-12.3308135 1.2974213-16.8625787 4.5317652-4.5317653 11.690901-5.0825953 16.8625787-1.2974213z" fill="#ffdb00"/><g fill="#ffea3a"><circle id="Oval" cx="29" cy="10" r="2"/><circle id="Oval" cx="19.5" cy="12.546" r="2"/><circle id="Oval" cx="12.546" cy="19.5" r="2"/><circle id="Oval" cx="10" cy="29" r="2"/><circle id="Oval" cx="29" cy="48" r="2"/><circle id="Oval" cx="38.5" cy="45.454" r="2"/><circle id="Oval" cx="45.454" cy="38.5" r="2"/><circle id="Oval" cx="48" cy="29" r="2"/></g><path id="Shape" d="m30.45 24.73c.898628-1.2725045.6737598-3.0210877-.5175927-4.0248203s-2.9527335-.9285946-4.0542778.1729498c-1.1015444 1.1015443-1.1766824 2.8629253-.1729498 4.0542778s2.7523158 1.4162207 4.0248203.5175927z" fill="#ff9701"/><path id="Shape" d="m29.73 31.09c.2522537-.0600665.5106935-.0902738.77-.09 1.9329966 0 3.5 1.5670034 3.5 3.5s-1.5670034 3.5-3.5 3.5-3.5-1.5670034-3.5-3.5c-.0002738-.2593065.0299335-.5177463.09-.77z" fill="#ff9701"/></g><g id="Icons_copy" fill="#000"><path id="Shape" d="m30 0c-16.5685425 0-30 13.4314575-30 30s13.4314575 30 30 30 30-13.4314575 30-30c-.018737-16.5607751-13.4392249-29.98126296-30-30zm0 58c-15.463973 0-28-12.536027-28-28s12.536027-28 28-28 28 12.536027 28 28c-.0176345 15.4566626-12.5433374 27.9823655-28 28z"/><path id="Shape" d="m47.529 13.876-33.653 33.653c-.4070166.4080254-.6199448.9707382-.585 1.546.0338141.5636148.3075993 1.0856998.752 1.434 4.564409 3.5641866 10.1908675 5.4972916 15.982 5.491.7133333 0 1.4283333-.0293333 2.145-.088 9.5091157-.7898306 17.8201893-6.7283821 21.6484809-15.4685937s2.5577479-18.875598-3.3094809-26.4004063c-.3480732-.4441484-.8697414-.7179059-1.433-.752-.5749765-.0311498-1.1365032.1811923-1.547.585zm-17.529 28.124c-2.1474329.0038749-4.2556728-.5750271-6.1-1.675l3.363-3.365c.6798934 1.9900028 2.6504006 3.2410689 4.7405847 3.0097758 2.0901842-.2312931 3.7394891-1.882916 3.9678463-3.973423.2283572-2.0905069-1.0254752-4.059255-3.016431-4.7363528l7.364-7.371c1.1042295 1.8468292 1.685306 3.9592374 1.681 6.111-.0071648 6.624447-5.375553 11.9928352-12 12zm9.5 3.454c.0878485-.0001119.1753083.0116616.26.035.3899679.1053269.6782727.4349271.7307707.8354427.0524979.4005155-.1411217.7932844-.4907707.9955573-.364075.2102235-.820759.1702849-1.1428169-.0999432s-.4407091-.7130342-.2969155-1.1080886.5193224-.6579867.9397324-.6579682zm-8.5 3.546c0 .5522847-.4477153 1-1 1s-1-.4477153-1-1 .4477153-1 1-1 1 .4477153 1 1zm.184-15.964c.104408-.0190651.2099792-.0310922.316-.036 1.3807119 0 2.5 1.1192881 2.5 2.5s-1.1192881 2.5-2.5 2.5-2.5-1.1192881-2.5-2.5c.0048514-.1053631.0168793-.2102729.036-.314zm22.734-1.028c-.7291081 8.7725796-6.2063092 16.4403912-14.2683455 19.9749806-8.0620362 3.5345894-17.4126123 2.3676297-24.3586545-3.0399806l7.159-7.165c1.963574 1.2699078 4.2171812 2.0209955 6.55 2.183v2.223c-1.3775467.4870363-2.2038721 1.8956662-1.9567957 3.3357331.2470764 1.4400668 1.4956868 2.492694 2.9567957 2.492694s2.7097193-1.0526272 2.9567957-2.492694c.2470764-1.4400669-.579249-2.8486968-1.9567957-3.3357331v-2.235c1.774572-.1248484 3.5084875-.5903268 5.107-1.371l1.119 1.938c-.9602113 1.1175212-.9745546 2.7646141-.0339508 3.8986881s2.5619489 1.4245227 3.8377429.6874956c1.275794-.7370272 1.8341161-2.2866713 1.321555-3.6680259-.5125612-1.3813546-1.9465833-2.1917256-3.3943471-1.9181578l-1.112-1.926c1.4729626-.9999553 2.7430447-2.2700374 3.743-3.743l1.926 1.112c-.1638237.8737613.0696536 1.7751103.6370753 2.4594565.5674217.6843461 1.4099386 1.0807134 2.2989247 1.0815435 1.3327961.0100692 2.5124256-.860397 2.8958485-2.1368897s-.1213099-2.6528945-1.2390584-3.3789008c-1.1177485-.7260062-2.5804638-.6275124-3.5907901.2417905l-1.938-1.119c.7806732-1.5985125 1.2461516-3.332428 1.371-5.107h2.235c.4870363 1.3775467 1.8956662 2.2038721 3.3357331 1.9567957 1.4400668-.2470764 2.492694-1.4956868 2.492694-2.9567957s-1.0526272-2.7097193-2.492694-2.9567957c-1.4400669-.2470764-2.8486968.579249-3.3357331 1.9567957h-2.223c-.1620893-2.3366502-.9157034-4.5937073-2.19-6.559l7.161-7.168c3.7081128 4.7524476 5.4884764 10.728056 4.986 16.735zm-8.329 6.992c.2386109-.4130933.7357915-.6001188 1.1875059-.4467067.4517145.153412.732165.604538.6698504 1.0775053-.0623145.4729673-.4500401.8360595-.9260748.8672385-.4760348.0311789-.9078079-.2782384-1.0312815-.7390371-.0700239-.2561579-.0339815-.5297203.1-.759zm2.411-9c0-.5522847.4477153-1 1-1s1 .4477153 1 1-.4477153 1-1 1-1-.4477153-1-1z"/><path id="Shape" d="m46.709 10.924c-.0340941-.5632586-.3078516-1.08492683-.752-1.433-10.3428374-8.06511483-25.0748063-7.1571411-34.3489737 2.1170263-9.2741674 9.2741674-10.18214113 24.0061363-2.1170263 34.3489737.34807317.4441484.8697414.7179059 1.433.752h.124c.5332303.0003795 1.0447595-.2111389 1.422-.588l33.654-33.651c.4071271-.4079541.6200748-.9707185.585-1.546zm-16.709 7.076c2.1451091-.0036465 4.2511008.5741708 6.094 1.672l-3.258 3.258c-.5121643-1.8602075-2.2820178-3.0874302-4.2037115-2.9148684-1.9216937.1725619-3.444595 1.6954632-3.6171569 3.6171569-.1725618 1.9216937 1.0546609 3.6915472 2.9148684 4.2037115l-8.258 8.258c-1.0978292-1.8428992-1.6756465-3.9488909-1.672-6.094.0071648-6.624447 5.375553-11.9928352 12-12zm-9.759-3.489c-.437107-.1172363-.7409957-.5134162-.7409462-.9659721.0000494-.452556.3040246-.8486695.7411572-.9658103s.898449.0738933 1.124789.4657824c.1329197.2297689.169032.5029578.1003798.759372-.0686523.2564142-.2364354.4750122-.4663798.607628-.2291953.134302-.5030237.1700187-.759.099zm8.759-3.511c0-.5522847.4477153-1 1-1s1 .4477153 1 1-.4477153 1-1 1-1-.4477153-1-1zm1.116 14.65c-.8620737.5865649-2.0288812.4209994-2.6937481-.3822324-.664867-.8032319-.6095157-1.9804267.1277866-2.7177291.7373024-.7373023 1.9144972-.7926536 2.7177291-.1277866.8032318.6648669.9687973 1.8316744.3822324 2.6937481zm7.43-7.43c-1.9624668-1.2688397-4.2146782-2.0192328-6.546-2.181v-2.223c1.3775467-.4870363 2.2038721-1.8956662 1.9567957-3.3357331-.2470764-1.44006679-1.4956868-2.49269402-2.9567957-2.49269402s-2.7097193 1.05262723-2.9567957 2.49269402c-.2470764 1.4400669.579249 2.8486968 1.9567957 3.3357331v2.235c-1.774572.1248484-3.5084875.5903268-5.107 1.371l-1.119-1.938c1.1047184-1.1998578 1.169704-3.0259624.1530708-4.3013127-1.0166332-1.27535032-2.8112743-1.6190714-4.2272019-.8096206s-2.0302841 2.5303364-1.447091 4.0534737c.5831931 1.5231374 2.189769 2.3936515 3.7842221 2.0504596l1.118 1.935c-1.4729626.9999553-2.7430447 2.2700374-3.743 3.743l-1.926-1.112c.2431389-1.2482526-.3365359-2.5125953-1.441-3.143-1.3215861-.78288-3.0206897-.4446361-3.9417033.7846828-.9210137 1.2293188-.7682253 2.9550122.3544495 4.0033882 1.1226748 1.0483761 2.8547761 1.0828301 4.0182538.079929l1.946 1.123c-.7809205 1.5991285-1.2464052 3.3337465-1.371 5.109h-2.235c-.4870363-1.3775467-1.8956662-2.2038721-3.3357331-1.9567957-1.44006679.2470764-2.49269402 1.4956868-2.49269402 2.9567957s1.05262723 2.7097193 2.49269402 2.9567957c1.4400669.2470764 2.8486968-.579249 3.3357331-1.9567957h2.223c.1617672 2.3313218.9121603 4.5835332 2.181 6.546l-7.163 7.163.707.708-.7-.69c-5.41496983-6.9455255-6.58739062-16.3002563-3.05393148-24.367281 3.53345918-8.0670248 11.20424668-13.54831823 19.98093148-14.277719.6633333-.05466667 1.3243333-.082 1.983-.082 5.3385723-.00809336 10.5260775 1.77188807 14.735 5.056zm-23.135 2.78c-.242775.4204964-.7525263.6058348-1.2086798.439459-.4561535-.1663757-.7268769-.6363816-.6419168-1.1144388s.5010495-.8260031.9865966-.8250202c.3569037.0007225.6863685.1916068.8645074.5008757.1781389.309269.1779456.6900364-.0005074.9991243zm-2.411 9c0 .5522847-.4477153 1-1 1s-1-.4477153-1-1 .4477153-1 1-1 1 .4477153 1 1z"/><circle id="Oval" cx="38" cy="31" r="1"/><circle id="Oval" cx="22" cy="28" r="1"/></g></g></g></svg>